<svg width="200" height="60" viewBox="0 0 200 60" fill="none" xmlns="http://www.w3.org/2000/svg">
  <!-- Brain/Head outline -->
  <path d="M15 45C15 35 20 25 30 20C35 15 45 15 50 20C55 15 65 15 70 20C80 25 85 35 85 45" stroke="#00B4D8" stroke-width="2" fill="none"/>
  
  <!-- Neural network inside head -->
  <circle cx="35" cy="35" r="2" fill="#00B4D8"/>
  <circle cx="45" cy="30" r="2" fill="#00B4D8"/>
  <circle cx="55" cy="35" r="2" fill="#00B4D8"/>
  <circle cx="40" cy="40" r="2" fill="#00B4D8"/>
  <circle cx="60" cy="40" r="2" fill="#00B4D8"/>
  
  <!-- Connections -->
  <line x1="35" y1="35" x2="45" y2="30" stroke="#00B4D8" stroke-width="1"/>
  <line x1="45" y1="30" x2="55" y2="35" stroke="#00B4D8" stroke-width="1"/>
  <line x1="35" y1="35" x2="40" y2="40" stroke="#00B4D8" stroke-width="1"/>
  <line x1="55" y1="35" x2="60" y2="40" stroke="#00B4D8" stroke-width="1"/>
  
  <!-- Hand/Support element -->
  <path d="M10 50C10 45 12 40 15 38C18 36 22 36 25 38C28 40 30 45 30 50" stroke="#90E0EF" stroke-width="2" fill="none"/>
  
  <!-- Text: mindlyfe -->
  <text x="100" y="25" font-family="Arial, sans-serif" font-size="24" font-weight="bold" fill="#90C695">mind</text>
  <text x="100" y="45" font-family="Arial, sans-serif" font-size="24" font-weight="bold" fill="#00B4D8">lyfe</text>
  
  <!-- Registered trademark -->
  <circle cx="185" cy="15" r="8" stroke="#333" stroke-width="1" fill="none"/>
  <text x="181" y="19" font-family="Arial, sans-serif" font-size="10" fill="#333">R</text>
  
  <!-- Tagline -->
  <text x="100" y="55" font-family="Arial, sans-serif" font-size="10" fill="#333">Live Better</text>
  <text x="140" y="55" font-family="Arial, sans-serif" font-size="8" fill="#333">™</text>
</svg>